# xmcd
#
# Track frame offsets:
#	150
#	17025
#	34650
#	52500
#	71025
#	86800
#	105850
#	125125
#	141175
#
# Disc length: 2092 seconds
#
# Revision: 3
# Processed by: cddbd v1.5.2PL0 Copyright (c) Steve Scherf et al.
# Submitted via: Jack! The Knife
#
DISCID=71082a09
DTITLE=Mama's Boys - Power and Passion
DYEAR=1985
DGENRE=Hard Rock
TTITLE0=Hard'n'Loud
TTITLE1=Straight Forward, No Looking Back
TTITLE2=Lettin' Go
TTITLE3=Needle In The Groove
TTITLE4=Run
TTITLE5=Power and Passion
TTITLE6=Don't Tell Mama
TTITLE7=The Professor II
TTITLE8=Let's Get High
EXTD=Produced by: Chris Tsangarides [Jive]
EXTT0=Pat Mc Manus
EXTT1=Pat Mc Manus
EXTT2=Pat Mc Manus
EXTT3=Pat Mc Manus
EXTT4=Pat Mc Manus
EXTT5=Pat Mc Manus
EXTT6=Pat Mc Manus
EXTT7=Pat Mc Manus
EXTT8=Pat Mc Manus
PLAYORDER=
